<svg width="24" height="24" viewBox="0 0 24 24" fill="none" xmlns="http://www.w3.org/2000/svg">
<g id="Property 1=fi:help-circle">
<path id="Vector" d="M12 22C17.5228 22 22 17.5228 22 12C22 6.47715 17.5228 2 12 2C6.47715 2 2 6.47715 2 12C2 17.5228 6.47715 22 12 22Z" stroke="currentColor" stroke-width="2" stroke-linecap="round" stroke-linejoin="round"/>
<path id="Vector_2" d="M12 17H12.01" stroke="currentColor" stroke-width="2" stroke-linecap="round" stroke-linejoin="round"/>
<path id="Vector_3" d="M9.08997 8.99999C9.32507 8.33166 9.78912 7.7681 10.3999 7.40912C11.0107 7.05015 11.7289 6.91893 12.4271 7.0387C13.1254 7.15848 13.7588 7.52151 14.215 8.06352C14.6713 8.60552 14.921 9.29151 14.92 9.99999C14.92 12 11.92 13 11.92 13" stroke="currentColor" stroke-width="2" stroke-linecap="round" stroke-linejoin="round"/>
</g>
</svg>
