<svg width="21" height="21" viewBox="0 0 21 21" fill="none" xmlns="http://www.w3.org/2000/svg">
<g id="icon">
<path id="Vector" d="M10.5584 20.2605C9.50141 20.8415 9.54641 19.986 9.59191 19.7225C9.61891 19.5655 9.74191 18.829 9.74191 18.829C9.77691 18.562 9.81391 18.149 9.70841 17.8855C9.59091 17.5955 9.12541 17.4445 8.78341 17.371C3.73841 16.7075 0.00390625 13.2 0.00390625 9.01252C0.00390625 4.34152 4.71391 0.541016 10.5014 0.541016C16.2889 0.541016 20.9984 4.34152 20.9984 9.01252C20.9984 14.2585 15.4344 17.5795 10.5584 20.2605ZM7.18291 10.9225C7.18291 10.6425 6.95341 10.415 6.67141 10.415H5.24341V7.07602C5.24341 6.79602 5.01391 6.56852 4.73191 6.56852C4.44941 6.56852 4.22041 6.79602 4.22041 7.07602V10.923C4.22041 11.2035 4.44991 11.431 4.73191 11.431H6.67141C6.95341 11.4315 7.18291 11.203 7.18291 10.9225ZM8.67691 7.07602C8.67691 6.79602 8.4474 6.56852 8.16541 6.56852C7.88291 6.56852 7.65391 6.79602 7.65391 7.07602V10.923C7.65391 11.2035 7.88341 11.431 8.16541 11.431C8.44791 11.431 8.67691 11.203 8.67691 10.923V7.07602ZM13.3469 7.07602C13.3469 6.79602 13.1174 6.56852 12.8354 6.56852C12.5529 6.56852 12.3229 6.79602 12.3229 7.07602V9.45652L10.3339 6.77202C10.2379 6.64502 10.0844 6.56902 9.92491 6.56902C9.86991 6.56902 9.8154 6.57702 9.76241 6.59502C9.55291 6.66452 9.41241 6.85802 9.41241 7.07652V10.9235C9.41241 11.204 9.64241 11.4315 9.92491 11.4315C10.2079 11.4315 10.4374 11.2035 10.4374 10.9235V8.54402L12.4254 11.2285C12.5214 11.3555 12.6744 11.4315 12.8344 11.4315C12.8889 11.4315 12.9439 11.4225 12.9969 11.405C13.2069 11.3365 13.3469 11.143 13.3469 10.9235V7.07602ZM16.4859 8.49202H15.0579V7.58352H16.4859C16.7689 7.58352 16.9984 7.35602 16.9984 7.07602C16.9984 6.79602 16.7684 6.56852 16.4859 6.56852H14.5464C14.2639 6.56852 14.0349 6.79602 14.0349 7.07602C14.0349 7.07652 14.0349 7.07652 14.0349 7.07752V8.99852C14.0349 8.99852 14.0349 8.99902 14.0349 8.99952V10.922C14.0349 11.2025 14.2649 11.43 14.5464 11.43H16.4859C16.7684 11.43 16.9984 11.202 16.9984 10.922C16.9984 10.642 16.7684 10.4145 16.4859 10.4145H15.0579V9.50602H16.4859C16.7689 9.50602 16.9984 9.27852 16.9984 8.99852C16.9984 8.71802 16.7684 8.49052 16.4859 8.49052V8.49202Z" fill="currentColor"/>
</g>
</svg>
