<svg width="21" height="21" viewBox="0 0 21 21" fill="none" xmlns="http://www.w3.org/2000/svg">
<g id="icon">
<g id="Vector">
<path d="M13.6624 10.2256C13.6624 12.1145 12.1312 13.6457 10.2423 13.6457C8.35343 13.6457 6.82221 12.1145 6.82221 10.2256C6.82221 8.33675 8.35343 6.80553 10.2423 6.80553C12.1312 6.80553 13.6624 8.33675 13.6624 10.2256Z" fill="currentColor"/>
<path fill-rule="evenodd" clip-rule="evenodd" d="M19.957 3.53221C20.2611 4.33773 20.4225 5.18992 20.434 6.05067C20.4974 7.13332 20.4977 7.48737 20.5 10.228L20.5 10.2659C20.5 13.0424 20.4852 13.389 20.4363 14.4823C20.4192 15.3335 20.2587 16.1722 19.9593 16.9678C19.6953 17.6471 19.2924 18.264 18.7763 18.7792C18.2602 19.2944 17.6423 19.6966 16.9619 19.9602C16.1654 20.2586 15.3239 20.4196 14.4734 20.4364C13.3862 20.5 13.0299 20.5 10.25 20.5C7.47007 20.5 7.12286 20.4852 6.0266 20.4364C5.17437 20.4084 4.33318 20.2354 3.53923 19.9249C2.85855 19.6619 2.24031 19.2601 1.72401 18.745C1.20771 18.23 0.804697 17.613 0.540732 16.9337C0.241337 16.137 0.0808252 15.2983 0.0637494 14.4482C0 13.3617 0 13.0071 0 10.2318C0 7.45651 0.014799 7.10988 0.0637494 6.01544C0.079827 5.16661 0.241145 4.32677 0.540732 3.53221C0.804255 2.85266 1.20696 2.2355 1.72309 1.72023C2.23922 1.20496 2.85741 0.802918 3.53809 0.539833C4.33422 0.241468 5.17527 0.0800703 6.02546 0.062507C7.11262 0 7.46893 0 10.2489 0C13.0288 0 13.376 0.0136379 14.4711 0.062507C15.3217 0.0799422 16.1631 0.241342 16.9596 0.539833C17.6402 0.803101 18.2583 1.20521 18.7744 1.72045C19.2905 2.2357 19.6933 2.85276 19.957 3.53221ZM4.97929 10.2261C4.97929 13.1287 7.3346 15.4801 10.242 15.4801C11.6378 15.4801 12.9764 14.9266 13.9634 13.9413C14.9503 12.956 15.5048 11.6196 15.5048 10.2261C15.5048 8.83269 14.9503 7.49632 13.9634 6.511C12.9764 5.52569 11.6378 4.97214 10.242 4.97214C7.3346 4.97214 4.97929 7.32354 4.97929 10.2261ZM15.2444 5.90999C15.3934 5.9715 15.553 6.00309 15.7142 6.00294C16.3916 6.00294 16.9403 5.45515 16.9403 4.7778C16.9403 4.61699 16.9086 4.45775 16.8469 4.30918C16.7853 4.16061 16.6949 4.02561 16.581 3.9119C16.4671 3.79819 16.3319 3.70799 16.1831 3.64645C16.0343 3.58491 15.8748 3.55324 15.7137 3.55324C15.5526 3.55324 15.3931 3.58491 15.2443 3.64645C15.0954 3.70799 14.9602 3.79819 14.8463 3.9119C14.7324 4.02561 14.6421 4.16061 14.5804 4.30918C14.5188 4.45775 14.4871 4.61699 14.4871 4.7778C14.4869 4.93873 14.5186 5.09811 14.5802 5.24682C14.6418 5.39553 14.7322 5.53064 14.8462 5.64444C14.9601 5.75823 15.0955 5.84847 15.2444 5.90999Z" fill="currentColor"/>
</g>
</g>
</svg>
