<svg width="24" height="24" viewBox="0 0 24 24" fill="none" xmlns="http://www.w3.org/2000/svg">
<g id="Property 1=behance">
<path id="Vector" d="M20.07 6.34998H15V7.75998H20.09L20.07 6.34998ZM19 16.05C18.6154 16.3048 18.1612 16.4341 17.7 16.42C17.3947 16.4518 17.0862 16.4203 16.7937 16.3273C16.5011 16.2344 16.2309 16.0821 16 15.88C15.573 15.3959 15.3507 14.7648 15.38 14.12H22C22.0477 13.4485 21.9904 12.7737 21.83 12.12C21.6749 11.498 21.4034 10.911 21.03 10.39C20.6541 9.88458 20.1686 9.47089 19.61 9.17998C18.9884 8.87352 18.3029 8.71927 17.61 8.72998C16.9583 8.7252 16.3123 8.85101 15.71 9.09998C15.1585 9.33247 14.6588 9.67241 14.24 10.1C13.8224 10.5361 13.499 11.0535 13.29 11.62C13.0657 12.2315 12.9539 12.8786 12.96 13.53C12.9497 14.1906 13.0581 14.8477 13.28 15.47C13.4685 16.0335 13.7677 16.5537 14.16 17C14.5659 17.4381 15.0648 17.7798 15.62 18C16.2391 18.2359 16.8976 18.3513 17.56 18.34C18.4894 18.369 19.407 18.1256 20.2 17.64C21.0009 17.0708 21.5775 16.2395 21.83 15.29H19.62C19.5017 15.6041 19.284 15.871 19 16.05ZM15.57 11.93C15.6478 11.6807 15.777 11.4504 15.9493 11.2541C16.1215 11.0577 16.3329 10.8996 16.57 10.79C16.884 10.6487 17.2258 10.5803 17.57 10.59C17.8186 10.5687 18.0689 10.6015 18.3036 10.6861C18.5384 10.7707 18.7521 10.9051 18.93 11.08C19.2698 11.4959 19.4878 11.9978 19.56 12.53H15.41C15.4262 12.3268 15.463 12.1257 15.52 11.93H15.57ZM10.28 11.45C10.789 11.238 11.2312 10.8925 11.56 10.45C11.8622 9.97998 12.0124 9.42831 11.99 8.86998C12.0096 8.36081 11.9103 7.85409 11.7 7.38998C11.5233 6.98789 11.2397 6.642 10.88 6.38998C10.4987 6.12795 10.0656 5.95064 9.61 5.86998C9.07082 5.75689 8.52087 5.70324 7.97 5.70998H2V18.29H8.1C8.65669 18.2904 9.21116 18.2198 9.75 18.08C10.2607 17.9479 10.7446 17.7279 11.18 17.43C11.6017 17.1377 11.9452 16.7462 12.18 16.29C12.4399 15.7798 12.5672 15.2123 12.55 14.64C12.5689 13.9307 12.37 13.2327 11.98 12.64C11.5606 12.0439 10.9385 11.6209 10.23 11.45H10.28ZM4.77 7.85998H7.36C7.59795 7.85968 7.83548 7.87976 8.07 7.91998C8.28595 7.95198 8.49334 8.02677 8.68 8.13998C8.86035 8.24199 9.00648 8.39508 9.1 8.57998C9.21582 8.80169 9.27102 9.05007 9.26 9.29998C9.27863 9.51521 9.24572 9.73179 9.16399 9.93178C9.08225 10.1318 8.95405 10.3094 8.79 10.45C8.43212 10.696 8.00388 10.8189 7.57 10.8H4.77V7.85998ZM9.61 15.3C9.50726 15.5038 9.35189 15.6764 9.16 15.8C8.9603 15.9242 8.74027 16.0122 8.51 16.06C8.25406 16.1173 7.99224 16.1441 7.73 16.14H4.73V12.69H7.73C8.24482 12.6674 8.75322 12.8112 9.18 13.1C9.37281 13.273 9.52217 13.489 9.61599 13.7305C9.7098 13.972 9.74543 14.2322 9.72 14.49C9.74704 14.7649 9.70936 15.0423 9.61 15.3Z" fill="currentColor"/>
</g>
</svg>
