<svg width="24" height="24" viewBox="0 0 24 24" fill="none" xmlns="http://www.w3.org/2000/svg">
<g id="Property 1=messenger-alt">
<path id="Vector" d="M11.9913 1.00043C10.5581 0.948281 9.1291 1.18713 7.79071 1.70256C6.45232 2.21799 5.23227 2.99931 4.20422 3.99934C3.17616 4.99937 2.36144 6.19737 1.80923 7.52101C1.25702 8.84465 0.978788 10.2665 0.991324 11.7006C0.972533 13.1784 1.26707 14.6434 1.85553 15.9991C2.444 17.3548 3.31303 18.5704 4.40538 19.5659L4.45711 21.2563C4.47177 21.7236 4.66772 22.1668 5.00347 22.4922C5.33922 22.8176 5.78841 22.9995 6.25594 22.9995C6.50603 22.9991 6.75336 22.9473 6.9825 22.8471L8.9034 22.0004C9.91071 22.2686 10.9489 22.4032 11.9913 22.4008C13.4246 22.453 14.8536 22.2142 16.1921 21.6988C17.5305 21.1833 18.7507 20.402 19.7788 19.402C20.8069 18.402 21.6218 17.204 22.1741 15.8803C22.7264 14.5567 23.0047 13.1348 22.9923 11.7006C23.0047 10.2664 22.7264 8.84457 22.1741 7.52091C21.6218 6.19726 20.8069 4.99926 19.7788 3.99924C18.7507 2.99922 17.5306 2.21792 16.1921 1.7025C14.8537 1.18709 13.4246 0.948264 11.9913 1.00043ZM11.9913 20.4008C11.1013 20.4034 10.215 20.2855 9.35656 20.0502C8.95905 19.943 8.53678 19.9754 8.16027 20.142L6.4464 20.8979L6.40148 19.4047C6.39154 19.1629 6.33318 18.9255 6.22985 18.7066C6.12652 18.4877 5.98032 18.2917 5.79991 18.1303C4.90047 17.3207 4.18453 16.3282 3.70013 15.2193C3.21573 14.1103 2.97406 12.9106 2.99132 11.7006C2.98492 10.5308 3.21561 9.37179 3.66948 8.29358C4.12335 7.21537 4.79098 6.24029 5.63208 5.42721C6.47318 4.61413 7.4703 3.97991 8.56327 3.56282C9.65624 3.14573 10.8224 2.95441 11.9913 3.00043C13.1587 2.96075 14.3222 3.15642 15.4124 3.57578C16.5026 3.99514 17.4973 4.62962 18.3371 5.44142C19.177 6.25323 19.8449 7.22576 20.3011 8.30109C20.7572 9.37641 20.9923 10.5325 20.9923 11.7006C20.9923 12.8687 20.7572 14.0248 20.3011 15.1002C19.8449 16.1755 19.177 17.148 18.3371 17.9598C17.4973 18.7716 16.5026 19.4061 15.4124 19.8255C14.3222 20.2448 13.1587 20.4405 11.9913 20.4008ZM15.7257 8.58539L13.4132 11.3403L10.0665 9.28363C9.86228 9.15792 9.61959 9.10995 9.38287 9.14852C9.14616 9.18708 8.93124 9.30959 8.77745 9.49363L5.7257 13.1303C5.64084 13.2308 5.57664 13.347 5.53679 13.4724C5.49694 13.5977 5.48221 13.7297 5.49346 13.8607C5.5047 13.9918 5.5417 14.1193 5.60233 14.236C5.66296 14.3527 5.74602 14.4563 5.84676 14.5409C5.94751 14.6254 6.06395 14.6893 6.18941 14.7287C6.31487 14.7682 6.44688 14.7825 6.57789 14.7709C6.70889 14.7592 6.83631 14.7218 6.95284 14.6608C7.06937 14.5999 7.17271 14.5165 7.25695 14.4155L9.75495 11.4399L13.1016 13.4956C13.3058 13.6214 13.5484 13.6695 13.7851 13.6311C14.0218 13.5927 14.2368 13.4704 14.3907 13.2866L17.2569 9.87055C17.3423 9.77014 17.4069 9.65384 17.4472 9.52834C17.4874 9.40284 17.5025 9.27061 17.4914 9.13928C17.4804 9.00795 17.4434 8.8801 17.3828 8.76309C17.3221 8.64609 17.2389 8.54223 17.138 8.4575C17.037 8.37277 16.9203 8.30884 16.7946 8.26939C16.6688 8.22995 16.5365 8.21576 16.4052 8.22764C16.274 8.23953 16.1464 8.27726 16.0297 8.33866C15.9131 8.40005 15.8098 8.48391 15.7257 8.58539Z" fill="currentColor"/>
</g>
</svg>
