<svg width="24" height="24" viewBox="0 0 24 24" fill="none" xmlns="http://www.w3.org/2000/svg">
<g id="Property 1=linkedin-alt">
<path id="Vector" d="M17.5 8.99897C16.6047 8.99859 15.7233 9.22003 14.9345 9.6435C14.8626 9.45393 14.7346 9.29074 14.5677 9.17561C14.4008 9.06049 14.2027 8.99888 14 8.99897H9.99997C9.86863 8.9989 9.73856 9.02471 9.6172 9.07494C9.49584 9.12517 9.38557 9.19882 9.2927 9.2917C9.19982 9.38457 9.12617 9.49484 9.07594 9.6162C9.02571 9.73756 8.9999 9.86763 8.99997 9.99897V21.999C8.99989 22.1303 9.02571 22.2604 9.07594 22.3817C9.12616 22.5031 9.19982 22.6134 9.29269 22.7062C9.38557 22.7991 9.49584 22.8728 9.6172 22.923C9.73856 22.9732 9.86863 22.999 9.99997 22.999H14C14.1313 22.999 14.2614 22.9732 14.3827 22.923C14.5041 22.8728 14.6144 22.7991 14.7072 22.7062C14.8001 22.6134 14.8738 22.5031 14.924 22.3817C14.9742 22.2604 15 22.1303 15 21.999V16.499C15 16.2338 15.1053 15.9794 15.2929 15.7919C15.4804 15.6043 15.7348 15.499 16 15.499C16.2652 15.499 16.5195 15.6043 16.7071 15.7919C16.8946 15.9794 17 16.2338 17 16.499V21.999C16.9999 22.1303 17.0257 22.2604 17.0759 22.3817C17.1262 22.5031 17.1998 22.6134 17.2927 22.7062C17.3856 22.7991 17.4958 22.8728 17.6172 22.923C17.7386 22.9732 17.8686 22.999 18 22.999H22C22.1313 22.999 22.2614 22.9732 22.3827 22.923C22.5041 22.8728 22.6144 22.7991 22.7072 22.7062C22.8001 22.6134 22.8738 22.5031 22.924 22.3817C22.9742 22.2604 23 22.1303 23 21.999V14.499C22.9982 13.0408 22.4181 11.6429 21.3871 10.6119C20.356 9.58083 18.9581 9.00078 17.5 8.99897V8.99897ZM21 20.999H19V16.499C19 15.7033 18.6839 14.9403 18.1213 14.3777C17.5587 13.815 16.7956 13.499 16 13.499C15.2043 13.499 14.4413 13.815 13.8786 14.3777C13.316 14.9403 13 15.7033 13 16.499V20.999H11V10.999H13V11.7021C13.0001 11.9093 13.0645 12.1114 13.1844 12.2804C13.3043 12.4494 13.4737 12.577 13.6692 12.6456C13.8647 12.7142 14.0767 12.7204 14.2759 12.6633C14.4751 12.6063 14.6517 12.4888 14.7812 12.3271C15.23 11.7571 15.8456 11.3415 16.542 11.1383C17.2384 10.9351 17.9808 10.9545 18.6657 11.1937C19.3506 11.4329 19.9437 11.88 20.3621 12.4725C20.7806 13.0651 21.0036 13.7735 21 14.499V20.999ZM6.99997 8.99897H2.99997C2.86863 8.9989 2.73856 9.02471 2.6172 9.07494C2.49584 9.12517 2.38557 9.19882 2.2927 9.2917C2.19982 9.38457 2.12617 9.49484 2.07594 9.6162C2.02571 9.73756 1.9999 9.86763 1.99997 9.99897V21.999C1.99989 22.1303 2.02571 22.2604 2.07594 22.3817C2.12616 22.5031 2.19982 22.6134 2.29269 22.7062C2.38557 22.7991 2.49584 22.8728 2.6172 22.923C2.73856 22.9732 2.86863 22.999 2.99997 22.999H6.99997C7.13131 22.999 7.26138 22.9732 7.38274 22.923C7.5041 22.8728 7.61437 22.7991 7.70725 22.7062C7.80012 22.6134 7.87378 22.5031 7.92401 22.3817C7.97423 22.2604 8.00005 22.1303 7.99997 21.999V9.99897C8.00005 9.86763 7.97423 9.73756 7.924 9.6162C7.87377 9.49484 7.80012 9.38457 7.70724 9.2917C7.61437 9.19882 7.5041 9.12517 7.38274 9.07494C7.26138 9.02471 7.13131 8.9989 6.99997 8.99897V8.99897ZM5.99997 20.999H3.99997V10.999H5.99997V20.999ZM5.01462 1.54197C4.57698 1.51577 4.13859 1.57887 3.7261 1.72741C3.31361 1.87596 2.93564 2.10686 2.61519 2.40606C2.29473 2.70527 2.03849 3.06653 1.86203 3.46787C1.68557 3.86921 1.59259 4.30226 1.58875 4.74066C1.5849 5.17907 1.67027 5.61367 1.83966 6.01805C2.00904 6.42243 2.25891 6.78813 2.57407 7.09291C2.88922 7.39769 3.26308 7.63518 3.6729 7.79095C4.08272 7.94671 4.51994 8.01748 4.95797 7.99897H4.98629C5.42509 8.02503 5.86459 7.96135 6.27795 7.81182C6.6913 7.66229 7.06983 7.43004 7.39039 7.12928C7.71096 6.82851 7.96683 6.46554 8.14238 6.06255C8.31793 5.65955 8.40946 5.225 8.41139 4.78543C8.41332 4.34586 8.3256 3.91052 8.15359 3.506C7.98158 3.10148 7.7289 2.73628 7.41099 2.43272C7.09307 2.12915 6.7166 1.89359 6.30457 1.74044C5.89255 1.58729 5.45362 1.51976 5.01461 1.54197H5.01462ZM4.9863 5.99897H4.95797C4.78504 6.01997 4.60961 6.00375 4.44346 5.9514C4.27731 5.89905 4.12427 5.81178 3.99461 5.69543C3.86495 5.57909 3.76167 5.43637 3.69168 5.27685C3.6217 5.11732 3.58664 4.94467 3.58884 4.77048C3.58884 4.02438 4.14841 3.54196 5.01462 3.54196C5.18932 3.51867 5.36698 3.53309 5.53564 3.58424C5.70429 3.6354 5.86003 3.7221 5.99236 3.83851C6.12468 3.95492 6.23053 4.09834 6.30276 4.2591C6.37499 4.41986 6.41193 4.59424 6.4111 4.77048C6.4111 5.51657 5.85153 5.99897 4.9863 5.99897Z" fill="currentColor"/>
</g>
</svg>
