<svg width="24" height="14" viewBox="0 0 24 14" fill="none" xmlns="http://www.w3.org/2000/svg">
<g id="icon">
<g id="Vector">
<path d="M6.76884 13.6552C10.5069 13.6552 13.5374 10.5984 13.5374 6.8277C13.5374 3.05698 10.5072 0 6.76884 0C3.0305 0 0 3.05767 0 6.8277C0 10.5977 3.03073 13.6552 6.76884 13.6552Z" fill="currentColor"/>
<path d="M20.9632 6.82814C20.9632 10.3775 19.4479 13.2559 17.5788 13.2559C15.7096 13.2559 14.1943 10.3775 14.1943 6.82814C14.1943 3.27882 15.7094 0.400391 17.5785 0.400391C19.4477 0.400391 20.9632 3.2779 20.9632 6.82814Z" fill="currentColor"/>
<path d="M23.9995 6.82759C23.9995 10.0069 23.4667 12.5858 22.8092 12.5858C22.1517 12.5858 21.6191 10.0076 21.6191 6.82759C21.6191 3.64758 22.152 1.06934 22.8092 1.06934C23.4665 1.06934 23.9995 3.64735 23.9995 6.82759Z" fill="currentColor"/>
</g>
</g>
</svg>
